<?xml version="1.0" standalone="no"?>
<!DOCTYPE svg PUBLIC "-//W3C//DTD SVG 20010904//EN"
 "http://www.w3.org/TR/2001/REC-SVG-20010904/DTD/svg10.dtd">
<svg version="1.0" xmlns="http://www.w3.org/2000/svg"
 width="100.000000pt" height="100.000000pt" viewBox="0 0 100.000000 100.000000"
 preserveAspectRatio="xMidYMid meet">

<g transform="translate(0.000000,100.000000) scale(0.100000,-0.100000)"
fill="#000000" stroke="none">
<path d="M348 940 c-11 -18 -24 -20 -100 -20 -139 0 -128 37 -128 -440 0 -387
1 -401 20 -420 19 -19 33 -20 360 -20 327 0 341 1 360 20 19 19 20 33 20 420
0 477 11 440 -128 440 -76 0 -89 2 -100 20 -11 18 -23 20 -152 20 -129 0 -141
-2 -152 -20z m272 -80 l0 -60 -120 0 -120 0 0 60 0 60 120 0 120 0 0 -60z
m-280 0 c0 -18 -7 -20 -70 -20 l-70 0 0 -360 0 -360 300 0 300 0 0 360 0 360
-70 0 c-64 0 -70 2 -70 20 0 20 5 21 88 18 l87 -3 0 -395 0 -395 -335 0 -335
0 -3 385 c-1 212 0 391 3 397 3 9 31 13 90 13 78 0 85 -2 85 -20z m8 -80 c11
-18 23 -20 152 -20 129 0 141 2 152 20 10 15 24 20 60 20 l48 0 0 -320 0 -320
-260 0 -260 0 0 320 0 320 48 0 c36 0 50 -5 60 -20z"/>
<path d="M300 640 c0 -19 7 -20 110 -20 103 0 110 1 110 20 0 19 -7 20 -110
20 -103 0 -110 -1 -110 -20z"/>
<path d="M620 640 c0 -17 7 -20 40 -20 33 0 40 3 40 20 0 17 -7 20 -40 20 -33
0 -40 -3 -40 -20z"/>
<path d="M300 520 c0 -19 7 -20 110 -20 103 0 110 1 110 20 0 19 -7 20 -110
20 -103 0 -110 -1 -110 -20z"/>
<path d="M620 520 c0 -17 7 -20 40 -20 33 0 40 3 40 20 0 17 -7 20 -40 20 -33
0 -40 -3 -40 -20z"/>
<path d="M300 400 c0 -19 7 -20 110 -20 103 0 110 1 110 20 0 19 -7 20 -110
20 -103 0 -110 -1 -110 -20z"/>
<path d="M620 400 c0 -17 7 -20 40 -20 33 0 40 3 40 20 0 17 -7 20 -40 20 -33
0 -40 -3 -40 -20z"/>
<path d="M300 280 c0 -19 7 -20 110 -20 103 0 110 1 110 20 0 19 -7 20 -110
20 -103 0 -110 -1 -110 -20z"/>
<path d="M620 280 c0 -17 7 -20 40 -20 33 0 40 3 40 20 0 17 -7 20 -40 20 -33
0 -40 -3 -40 -20z"/>
</g>
</svg>
