<?xml version="1.0" encoding="iso-8859-1"?>
<!-- Generator: Adobe Illustrator 19.0.0, SVG Export Plug-In . SVG Version: 6.00 Build 0)  -->
<svg version="1.1" id="Capa_1" xmlns="http://www.w3.org/2000/svg" xmlns:xlink="http://www.w3.org/1999/xlink" x="0px" y="0px"
	 viewBox="0 0 592 592" style="enable-background:new 0 0 592 592;" xml:space="preserve">
<g>
	<g>
		<rect x="392" y="456" width="16" height="16"/>
	</g>
</g>
<g>
	<g>
		<path d="M584,472h-8V256c0-17.673-14.327-32-32-32h-64V120c-0.04-35.33-28.67-63.96-64-64H64C28.67,56.04,0.04,84.67,0,120v256
			c0.04,35.33,28.67,63.96,64,64h77.752l-12,48H56c-13.255,0-24,10.745-24,24s10.745,24,24,24h504c17.673,0,32-14.327,32-32v-24
			C592,475.582,588.418,472,584,472z M544,240c8.837,0,16,7.163,16,16v216h-88c-2.122,0-4.156,0.844-5.656,2.344L452.688,488
			H347.312l-13.656-13.656c-1.5-1.5-3.534-2.344-5.656-2.344h-88V256c0-8.837,7.163-16,16-16H544z M224,256v104H72
			c-8.837,0-16-7.163-16-16V128c0-8.837,7.163-16,16-16h335.656c8.837,0,16,7.163,16,16v96H256C238.327,224,224,238.327,224,256z
			 M64,424c-26.499-0.026-47.974-21.501-48-48V120c0.026-26.499,21.501-47.974,48-48h352c26.499,0.026,47.974,21.501,48,48v104
			h-24.344v-96c0-17.673-14.327-32-32-32H72c-17.673,0-32,14.327-32,32v216c0,17.673,14.327,32,32,32h152v48H64z M56,520
			c-4.418,0-8-3.582-8-8s3.582-8,8-8h152c0.033,5.634,1.569,11.157,4.448,16H56z M208,480v8h-61.752l12-48H224v32h-8
			C211.582,472,208,475.582,208,480z M576,504c0,8.837-7.163,16-16,16H240c-8.837,0-16-7.163-16-16v-16h100.688l13.656,13.656
			c1.5,1.5,3.534,2.344,5.656,2.344h112c2.122,0,4.156-0.844,5.656-2.344L475.312,488H576V504z"/>
	</g>
</g>
<g>
	<g>
		<path d="M536,256H264c-4.418,0-8,3.582-8,8v168c0,4.418,3.582,8,8,8h272c4.418,0,8-3.582,8-8V264C544,259.582,540.418,256,536,256
			z M528,424H272V272h256V424z"/>
	</g>
</g>
<g>
	<g>
		<path d="M96.144,136c-8.912,0.009-16.135,7.232-16.144,16.144V200h16l0.144-48H216v-16H96.144z"/>
	</g>
</g>
<g>
	<g>
		<rect x="232" y="136" width="16" height="16"/>
	</g>
</g>
<g>
	<g>
		<path d="M304.144,288c-8.912,0.009-16.135,7.232-16.144,16.144V344h16l0.144-40H360v-16H304.144z"/>
	</g>
</g>
<g>
	<g>
		<rect x="376" y="288" width="16" height="16"/>
	</g>
</g>
<g>
</g>
<g>
</g>
<g>
</g>
<g>
</g>
<g>
</g>
<g>
</g>
<g>
</g>
<g>
</g>
<g>
</g>
<g>
</g>
<g>
</g>
<g>
</g>
<g>
</g>
<g>
</g>
<g>
</g>
</svg>
